<svg width="14" height="14" viewBox="0 0 14 14" fill="none" xmlns="http://www.w3.org/2000/svg">
<path d="M13.657 5.14453C13.657 5.09375 13.6358 5.06413 13.5935 5.05566C13.5512 5.0472 13.5046 5.04297 13.4539 5.04297L9.02319 4.37012L7.1062 0.333008C7.05542 0.282227 7.00675 0.252604 6.96021 0.244141C6.91366 0.235677 6.86499 0.231445 6.81421 0.231445C6.76343 0.231445 6.73381 0.248372 6.72534 0.282227C6.71688 0.316081 6.71265 0.333008 6.71265 0.333008L4.79565 4.37012L0.263428 5.04297C0.212646 5.04297 0.168213 5.06413 0.130127 5.10645C0.092041 5.14876 0.072998 5.19108 0.072998 5.2334C0.072998 5.28418 0.0772298 5.3138 0.0856934 5.32227C0.0941569 5.33073 0.123779 5.33496 0.174561 5.33496L3.34839 8.41992L2.57397 12.8506C2.57397 12.8929 2.57821 12.9352 2.58667 12.9775C2.59513 13.0199 2.62476 13.041 2.67554 13.041C2.71785 13.0918 2.7644 13.1172 2.81519 13.1172C2.86597 13.1172 2.91675 13.0918 2.96753 13.041L6.91577 10.9209L10.864 13.041C10.9063 13.0918 10.9635 13.1003 11.0354 13.0664C11.1073 13.0326 11.1433 12.9902 11.1433 12.9395C11.1433 12.9395 11.1433 12.9204 11.1433 12.8823C11.1433 12.8442 11.1433 12.7998 11.1433 12.749L10.3816 8.31836L13.5554 5.2334C13.6062 5.28418 13.6464 5.29476 13.676 5.26514C13.7056 5.23551 13.6993 5.19531 13.657 5.14453Z" fill="#FFB100"/>
</svg>
