<svg width="39" height="29" viewBox="0 0 39 29" fill="none" xmlns="http://www.w3.org/2000/svg">
<path d="M38.4356 19.5046C38.3262 18.8849 38.1576 18.3016 37.9298 17.7548C37.7019 17.208 37.4149 16.6976 37.0686 16.2237L37.0959 16.2511C37.0959 16.2329 37.0913 16.2192 37.0822 16.2101C37.0731 16.201 37.0594 16.1964 37.0412 16.1964C36.6402 15.6314 36.1709 15.1301 35.6332 14.6927C35.0955 14.2552 34.5076 13.8998 33.8697 13.6264L33.815 13.599C33.815 13.5626 33.8105 13.5307 33.8013 13.5034C33.7922 13.476 33.7786 13.4532 33.7603 13.435L31.3817 7.85752C30.8349 6.61808 29.9965 5.61559 28.8664 4.85006C27.7363 4.08452 26.4695 3.70175 25.066 3.70175H24.0271V2.63547C24.0271 2.10689 23.8403 1.65577 23.4666 1.28211C23.093 0.908457 22.6418 0.72163 22.1133 0.72163H16.6451C16.1166 0.72163 15.6654 0.908457 15.2918 1.28211C14.9181 1.65577 14.7313 2.10689 14.7313 2.63547V3.70175H14.2938C14.2938 3.70175 14.2893 3.70175 14.2802 3.70175C14.2711 3.70175 14.2665 3.70175 14.2665 3.70175C12.863 3.70175 11.6008 4.08452 10.4798 4.85006C9.35887 5.61559 8.5341 6.59986 8.00551 7.80284L7.97817 7.85752L5.59954 13.435C5.58132 13.4532 5.56765 13.476 5.55853 13.5034C5.54942 13.5307 5.54486 13.5626 5.54486 13.599C4.83401 13.9089 4.19606 14.3008 3.63102 14.7747C3.04776 15.2668 2.54651 15.8227 2.12729 16.4425C1.70807 17.0622 1.38909 17.7366 1.17037 18.4657C0.933417 19.1947 0.814941 19.9512 0.814941 20.7349V25.5195C0.814941 25.72 0.88785 25.8886 1.03367 26.0253C1.17948 26.162 1.35264 26.2304 1.55314 26.2304H6.1737C6.37419 26.9595 6.77519 27.5564 7.37668 28.0212C7.97817 28.486 8.66169 28.7184 9.42722 28.7184C10.211 28.7184 10.8991 28.486 11.4914 28.0212C12.0838 27.5564 12.4803 26.9686 12.6808 26.2577L12.7081 26.2304H26.5151C26.7338 26.9595 27.1394 27.5564 27.7317 28.0212C28.3241 28.486 29.0122 28.7184 29.796 28.7184C30.5615 28.7184 31.245 28.486 31.8465 28.0212C32.448 27.5564 32.849 26.9686 33.0495 26.2577V26.2304H37.8067C38.0072 26.2304 38.1804 26.162 38.3262 26.0253C38.472 25.8886 38.5449 25.72 38.5449 25.5195V20.7349C38.5449 20.5162 38.5358 20.302 38.5176 20.0924C38.4994 19.8828 38.472 19.6687 38.4356 19.4499V19.5046ZM36.1116 17.3994C36.2392 17.6181 36.3577 17.8459 36.4671 18.0829C36.5764 18.3198 36.6767 18.5659 36.7678 18.8211V18.8758H35.018C34.8175 18.8758 34.6444 18.8029 34.4985 18.6571C34.3527 18.5112 34.2798 18.3381 34.2798 18.1376C34.2798 17.9371 34.3527 17.7639 34.4985 17.6181C34.6444 17.4723 34.8175 17.3994 35.018 17.3994H36.1116ZM25.066 5.17814C26.1779 5.17814 27.1758 5.47889 28.0598 6.08038C28.9438 6.68188 29.5955 7.45653 30.0147 8.40433V8.43167L32.0105 13.0796C31.8283 13.0431 31.6323 13.0158 31.4227 12.9976C31.2131 12.9793 30.9989 12.9702 30.7802 12.9702H20.4181V5.17814H25.066ZM16.2077 2.63547C16.2077 2.50788 16.2533 2.40308 16.3444 2.32105C16.4355 2.23903 16.5358 2.19802 16.6451 2.19802H22.1133C22.2226 2.19802 22.3229 2.23903 22.414 2.32105C22.5051 2.40308 22.5507 2.50788 22.5507 2.63547V3.67441H16.2077V2.63547ZM9.3452 8.43167C9.76442 7.46564 10.416 6.68188 11.3001 6.08038C12.1841 5.47889 13.1729 5.17814 14.2665 5.17814C14.2665 5.17814 14.2711 5.17814 14.2802 5.17814C14.2893 5.17814 14.2938 5.17814 14.2938 5.17814H18.9417V12.9702H8.57967C8.36094 12.9702 8.14677 12.9793 7.93716 12.9976C7.72755 13.0158 7.51338 13.0431 7.29466 13.0796H7.34934L9.3452 8.43167ZM9.42722 27.242C8.89864 27.242 8.44752 27.0552 8.07387 26.6815C7.70021 26.3079 7.51338 25.8567 7.51338 25.3282C7.51338 24.7996 7.70021 24.3484 8.07387 23.9748C8.44752 23.6011 8.89864 23.4143 9.42722 23.4143C9.95581 23.4143 10.4069 23.6011 10.7806 23.9748C11.1542 24.3484 11.3411 24.7996 11.3411 25.3282C11.3411 25.8567 11.1542 26.3079 10.7806 26.6815C10.4069 27.0552 9.95581 27.242 9.42722 27.242ZM12.7628 24.7813C12.6352 23.9611 12.257 23.2822 11.6281 22.7445C10.9993 22.2068 10.2657 21.9379 9.42722 21.9379C8.58878 21.9379 7.8597 22.2068 7.23998 22.7445C6.62026 23.2822 6.23749 23.952 6.09167 24.754V24.7813H4.88869C5.0345 23.633 5.53575 22.6761 6.39242 21.9106C7.24909 21.145 8.26069 20.7623 9.42722 20.7623C10.5938 20.7623 11.6054 21.145 12.462 21.9106C13.3187 22.6761 13.8199 23.6239 13.9658 24.754V24.7813H12.7628ZM29.796 27.242C29.2674 27.242 28.8117 27.0552 28.4289 26.6815C28.0462 26.3079 27.8548 25.8567 27.8548 25.3282C27.8548 24.7996 28.0462 24.3484 28.4289 23.9748C28.8117 23.6011 29.2674 23.4143 29.796 23.4143C30.3245 23.4143 30.7757 23.6011 31.1493 23.9748C31.523 24.3484 31.7098 24.7996 31.7098 25.3282C31.7098 25.8567 31.523 26.3079 31.1493 26.6815C30.7757 27.0552 30.3245 27.242 29.796 27.242ZM33.1315 24.7813C32.9857 23.9611 32.5984 23.2822 31.9695 22.7445C31.3407 22.2068 30.6162 21.9379 29.796 21.9379C28.9575 21.9379 28.2239 22.2068 27.595 22.7445C26.9662 23.2822 26.5789 23.952 26.4331 24.754V24.7813H25.2574C25.4032 23.633 25.9045 22.6761 26.7612 21.9106C27.6178 21.145 28.6294 20.7623 29.796 20.7623C30.9625 20.7623 31.9741 21.145 32.8308 21.9106C33.6874 22.6761 34.1796 23.6239 34.3072 24.754L34.3345 24.7813H33.1315ZM37.0686 24.7813H35.8109C35.7197 23.9976 35.5101 23.2776 35.182 22.6214C34.8357 21.947 34.3937 21.3638 33.856 20.8716C33.3183 20.3795 32.7032 19.9876 32.0105 19.696C31.3179 19.4226 30.5797 19.2859 29.796 19.2859C28.994 19.2859 28.2467 19.4226 27.554 19.696C26.8614 19.9876 26.2462 20.3795 25.7085 20.8716C25.1708 21.3638 24.7288 21.9379 24.3825 22.5941C24.0544 23.2685 23.8539 23.9885 23.781 24.754V24.7813H20.4181V20.0241C20.4181 19.8236 20.3452 19.655 20.1994 19.5183C20.0536 19.3816 19.8804 19.3132 19.6799 19.3132C19.4794 19.3132 19.3108 19.3816 19.1741 19.5183C19.0374 19.655 18.96 19.8236 18.9417 20.0241V24.7813H15.4422C15.3692 23.9976 15.1596 23.2776 14.8133 22.6214C14.4852 21.947 14.0523 21.3638 13.5146 20.8716C12.9769 20.3795 12.3618 19.9876 11.6692 19.696C10.9583 19.4226 10.211 19.2859 9.42722 19.2859C8.64346 19.2859 7.90527 19.4226 7.21264 19.696C6.52001 19.9876 5.90485 20.3795 5.36715 20.8716C4.82945 21.3638 4.38744 21.9379 4.04113 22.5941C3.69482 23.2685 3.4852 23.9885 3.4123 24.754V24.7813H2.29133V20.7349C2.29133 19.8783 2.45538 19.0672 2.78346 18.3016C3.11155 17.5361 3.56267 16.8708 4.13682 16.3058C4.71097 15.7407 5.38082 15.285 6.14635 14.9387C6.89366 14.6106 7.70477 14.4466 8.57967 14.4466H30.7802C31.564 14.4466 32.2976 14.5787 32.9811 14.843C33.6646 15.1073 34.2798 15.4764 34.8266 15.9503C34.2616 15.9868 33.7831 16.2146 33.3912 16.6338C32.9994 17.0531 32.8034 17.5543 32.8034 18.1376C32.8034 18.7573 33.0176 19.2813 33.4459 19.7097C33.8743 20.138 34.3983 20.3522 35.018 20.3522H37.0686C37.0686 20.4251 37.0686 20.4934 37.0686 20.5572C37.0686 20.621 37.0686 20.6803 37.0686 20.7349V24.7813ZM24.4919 16.4151H22.7968C22.5963 16.4151 22.4231 16.488 22.2773 16.6338C22.1315 16.7797 22.0586 16.9528 22.0586 17.1533C22.0586 17.3538 22.1315 17.527 22.2773 17.6728C22.4231 17.8186 22.5963 17.8915 22.7968 17.8915H24.4919C24.6924 17.8915 24.8655 17.8186 25.0114 17.6728C25.1572 17.527 25.2301 17.3538 25.2301 17.1533C25.2301 16.9528 25.1572 16.7797 25.0114 16.6338C24.8655 16.488 24.6924 16.4151 24.4919 16.4151ZM10.2474 16.4151H8.88041C8.67991 16.4151 8.50676 16.488 8.36094 16.6338C8.21513 16.7797 8.14222 16.9528 8.14222 17.1533C8.14222 17.3538 8.21513 17.527 8.36094 17.6728C8.50676 17.8186 8.67991 17.8915 8.88041 17.8915H10.2474C10.4479 17.8915 10.6211 17.8186 10.7669 17.6728C10.9127 17.527 10.9856 17.3538 10.9856 17.1533C10.9856 16.9528 10.9127 16.7797 10.7669 16.6338C10.6211 16.488 10.4479 16.4151 10.2474 16.4151ZM20.1994 16.6338C20.1447 16.5609 20.0718 16.5063 19.9807 16.4698C19.8896 16.4333 19.7893 16.4151 19.6799 16.4151C19.4794 16.4151 19.3063 16.488 19.1605 16.6338C19.0147 16.7797 18.9417 16.9528 18.9417 17.1533C18.9417 17.3538 19.0147 17.527 19.1605 17.6728C19.3063 17.8186 19.4794 17.8915 19.6799 17.8915C19.8804 17.8915 20.0536 17.8186 20.1994 17.6728C20.3452 17.527 20.4181 17.3538 20.4181 17.1533C20.4181 17.044 20.3999 16.9483 20.3635 16.8662C20.327 16.7842 20.2723 16.7068 20.1994 16.6338Z" fill="#FF5E00"/>
</svg>
