<svg width="29" height="29" viewBox="0 0 29 29" fill="none" xmlns="http://www.w3.org/2000/svg">
<path d="M8.96265 17.5911C7.74129 17.5911 6.69767 17.1581 5.83179 16.2922C4.9659 15.4264 4.53296 14.3827 4.53296 13.1614C4.53296 11.94 4.9659 10.901 5.83179 10.0442C6.69767 9.18742 7.74129 8.75903 8.96265 8.75903C10.184 8.75903 11.2231 9.18742 12.0798 10.0442C12.9366 10.901 13.365 11.94 13.365 13.1614C13.365 14.3827 12.9366 15.4264 12.0798 16.2922C11.2231 17.1581 10.184 17.5911 8.96265 17.5911ZM8.96265 9.93481C8.06942 9.93481 7.30835 10.2493 6.67944 10.8782C6.05054 11.5071 5.73608 12.2681 5.73608 13.1614C5.73608 14.0546 6.05054 14.8202 6.67944 15.4583C7.30835 16.0963 8.06942 16.4153 8.96265 16.4153C9.85588 16.4153 10.6169 16.0963 11.2458 15.4583C11.8748 14.8202 12.1892 14.0546 12.1892 13.1614C12.1892 12.2681 11.8748 11.5071 11.2458 10.8782C10.6169 10.2493 9.85588 9.93481 8.96265 9.93481ZM19.9548 17.7551C18.7335 17.7551 17.6944 17.3222 16.8376 16.4563C15.9809 15.5904 15.5525 14.5468 15.5525 13.3254C15.5525 12.1223 15.9809 11.0878 16.8376 10.2219C17.6944 9.35604 18.7335 8.9231 19.9548 8.9231C21.1762 8.9231 22.2198 9.35604 23.0857 10.2219C23.9516 11.0878 24.3845 12.1223 24.3845 13.3254C24.3845 14.5468 23.9516 15.5904 23.0857 16.4563C22.2198 17.3222 21.1762 17.7551 19.9548 17.7551ZM19.9548 10.0989C19.0616 10.0989 18.3005 10.4133 17.6716 11.0422C17.0427 11.6711 16.7283 12.4322 16.7283 13.3254C16.7283 14.2187 17.0427 14.9843 17.6716 15.6223C18.3005 16.2603 19.0616 16.5793 19.9548 16.5793C20.8481 16.5793 21.6137 16.2603 22.2517 15.6223C22.8897 14.9843 23.2087 14.2187 23.2087 13.3254C23.2087 12.4322 22.8897 11.6711 22.2517 11.0422C21.6137 10.4133 20.8481 10.0989 19.9548 10.0989ZM12.6814 12.3137C12.5173 12.3137 12.3761 12.2636 12.2576 12.1633C12.1391 12.0631 12.0798 11.9309 12.0798 11.7668C12.0798 11.621 12.1391 11.4843 12.2576 11.3567C12.3761 11.2291 12.5173 11.1653 12.6814 11.1653L16.4275 11.1379C16.5916 11.1379 16.7283 11.2017 16.8376 11.3293C16.947 11.4569 17.0017 11.6028 17.0017 11.7668C17.0017 11.9309 16.947 12.0676 16.8376 12.177C16.7283 12.2864 16.5916 12.3411 16.4275 12.3411L12.6814 12.3137ZM16.2087 14.8567C16.1176 14.8567 16.0264 14.8339 15.9353 14.7883C15.8442 14.7428 15.7712 14.6835 15.7166 14.6106C15.7166 14.5924 15.5981 14.483 15.3611 14.2825C15.1241 14.082 14.7869 13.9999 14.3494 14.0364C14.003 14.0546 13.725 14.1321 13.5154 14.2688C13.3057 14.4055 13.1918 14.4739 13.1736 14.4739C13.0642 14.6015 12.9275 14.6607 12.7634 14.6516C12.5994 14.6425 12.4626 14.5741 12.3533 14.4465C12.2439 14.3372 12.1892 14.2004 12.1892 14.0364C12.1892 13.8723 12.253 13.7356 12.3806 13.6262C12.4171 13.5898 12.5994 13.4622 12.9275 13.2434C13.2556 13.0247 13.6931 12.8879 14.24 12.8333C15.0238 12.7786 15.6208 12.9381 16.031 13.3118C16.4412 13.6855 16.6554 13.8905 16.6736 13.927C16.783 14.0546 16.824 14.2004 16.7966 14.3645C16.7693 14.5286 16.6827 14.6562 16.5369 14.7473C16.4822 14.7838 16.4275 14.8111 16.3728 14.8293C16.3181 14.8476 16.2634 14.8567 16.2087 14.8567ZM22.4431 11.0012C22.3702 11.0012 22.2927 10.983 22.2107 10.9465C22.1287 10.9101 22.0603 10.8554 22.0056 10.7825C21.6593 10.3632 21.085 9.72062 20.283 8.85474C19.4809 7.98885 18.8702 7.41919 18.4509 7.14575C18.0317 6.89054 17.6534 6.76294 17.3162 6.76294C16.9789 6.76294 16.6918 6.7994 16.4548 6.87231C16.1632 6.98169 15.9034 7.15031 15.6755 7.37817C15.4477 7.60604 15.2882 7.85669 15.197 8.13013C15.1241 8.34888 15.1423 8.54028 15.2517 8.70435C15.3611 8.86841 15.4158 8.95044 15.4158 8.95044C15.5069 9.02336 15.5662 9.11906 15.5935 9.23755C15.6208 9.35604 15.6072 9.46997 15.5525 9.57935C15.516 9.68872 15.4477 9.77987 15.3474 9.85278C15.2472 9.9257 15.1332 9.96216 15.0056 9.96216H12.9548C12.8455 9.96216 12.7498 9.93937 12.6677 9.8938C12.5857 9.84823 12.5173 9.78898 12.4626 9.71606C12.408 9.64315 12.3715 9.56112 12.3533 9.46997C12.335 9.37882 12.3442 9.28768 12.3806 9.19653C12.5264 8.66789 12.5538 8.21671 12.4626 7.84302C12.3715 7.46932 12.1619 7.18221 11.8337 6.98169C11.5238 6.78117 11.182 6.69002 10.8083 6.70825C10.4347 6.72648 10.1658 6.80851 10.0017 6.95435C9.65535 7.26424 9.15861 7.8339 8.51147 8.66333C7.86434 9.49276 7.39494 10.0989 7.10327 10.4817C7.01213 10.6093 6.88452 10.6868 6.72046 10.7141C6.5564 10.7415 6.41056 10.7004 6.28296 10.5911C6.15535 10.4999 6.07788 10.3723 6.05054 10.2083C6.02319 10.0442 6.06421 9.89836 6.17358 9.77075C6.21004 9.71606 6.61108 9.18742 7.37671 8.18481C8.14233 7.18221 8.75301 6.48039 9.20874 6.07935C9.60978 5.73299 10.1248 5.54614 10.7537 5.5188C11.3826 5.49146 11.9522 5.64185 12.4626 5.96997C12.6996 6.1158 12.9867 6.40747 13.324 6.84497C13.6612 7.28247 13.7751 7.92049 13.6658 8.75903H14.0212C13.9848 8.6132 13.9711 8.45825 13.9802 8.29419C13.9893 8.13013 14.0212 7.95695 14.0759 7.77466C14.2218 7.31893 14.4724 6.91333 14.8279 6.55786C15.1833 6.20239 15.5981 5.94263 16.072 5.77856C16.5642 5.59627 17.0701 5.53703 17.5896 5.60083C18.1091 5.66463 18.6059 5.84237 19.0798 6.13403C19.6632 6.49862 20.4151 7.19588 21.3357 8.22583C22.2563 9.25578 22.7804 9.85278 22.908 10.0168C23.0173 10.1444 23.0629 10.2903 23.0447 10.4543C23.0264 10.6184 22.9535 10.746 22.8259 10.8372C22.7712 10.8918 22.712 10.9329 22.6482 10.9602C22.5844 10.9875 22.516 11.0012 22.4431 11.0012ZM15.2517 22.1301C15.1241 22.1301 14.9965 22.1301 14.8689 22.1301C14.7413 22.1301 14.6228 22.1301 14.5134 22.1301C14.1124 22.0937 13.7478 22.0253 13.4197 21.925C13.0916 21.8248 12.8819 21.6197 12.7908 21.3098C12.6996 20.9635 12.8181 20.6445 13.1462 20.3528C13.4744 20.0611 13.9392 19.7148 14.5408 19.3137C14.6319 19.2408 14.7276 19.1724 14.8279 19.1086C14.9281 19.0448 15.0238 18.9765 15.115 18.9036C14.6593 18.9583 14.1124 19.0403 13.4744 19.1497C12.8363 19.259 12.1892 19.3775 11.533 19.5051C11.0772 19.578 10.5987 19.6601 10.0974 19.7512C9.59611 19.8424 9.08114 19.9335 8.55249 20.0247C7.45874 20.207 6.57007 20.2252 5.88647 20.0793C5.20288 19.9335 4.72437 19.6236 4.45093 19.1497C3.9952 18.4205 4.01799 17.5956 4.51929 16.675C5.02059 15.7545 5.31681 15.2304 5.40796 15.1028C5.51733 14.9752 5.65405 14.8977 5.81812 14.8704C5.98218 14.843 6.12801 14.884 6.25562 14.9934C6.38322 15.0846 6.45614 15.2122 6.47437 15.3762C6.49259 15.5403 6.45614 15.6861 6.36499 15.8137C6.12801 16.1236 5.86825 16.5793 5.58569 17.1809C5.30314 17.7825 5.26213 18.2382 5.46265 18.5481C5.51733 18.6575 5.73608 18.7805 6.1189 18.9172C6.50171 19.054 7.2491 19.0312 8.36108 18.8489C8.88973 18.7577 9.4047 18.6711 9.90601 18.5891C10.4073 18.5071 10.8767 18.4205 11.3142 18.3293C13.5746 17.9283 15.0694 17.705 15.7986 17.6594C16.5278 17.6139 16.9653 17.7734 17.1111 18.1379C17.2387 18.4296 17.2068 18.6803 17.0154 18.8899C16.824 19.0995 16.6736 19.2499 16.5642 19.3411C16.3272 19.5051 16.0948 19.6692 15.8669 19.8333C15.6391 19.9973 15.4158 20.1431 15.197 20.2708C15.0512 20.3801 14.8962 20.4895 14.7322 20.5989C14.5681 20.7083 14.4223 20.8176 14.2947 20.927C14.3311 20.927 14.3767 20.927 14.4314 20.927C14.4861 20.927 14.5408 20.927 14.5955 20.927C15.3611 20.9817 16.2179 20.9543 17.1658 20.845C18.0955 20.7538 18.9796 20.608 19.8181 20.4075C20.6567 20.207 21.3767 19.9791 21.9783 19.7239C22.5981 19.4687 22.9809 19.2043 23.1267 18.9309C23.1449 18.9127 23.1541 18.8808 23.1541 18.8352C23.1541 18.7896 23.1176 18.7213 23.0447 18.6301C22.6801 18.1562 22.3155 17.828 21.9509 17.6458C21.5863 17.4635 21.4041 17.3723 21.4041 17.3723C21.24 17.3176 21.1215 17.2174 21.0486 17.0715C20.9757 16.9257 20.9666 16.7708 21.0212 16.6067C21.0759 16.4609 21.1762 16.3515 21.322 16.2786C21.4679 16.2056 21.6228 16.1965 21.7869 16.2512C21.8051 16.2512 22.0557 16.3743 22.5388 16.6204C23.0219 16.8665 23.5004 17.2903 23.9744 17.8918C24.1749 18.1471 24.2934 18.4114 24.3298 18.6848C24.3663 18.9583 24.3116 19.2317 24.1658 19.5051C23.9288 19.9426 23.4731 20.3254 22.7986 20.6536C22.1241 20.9817 21.3494 21.2551 20.4744 21.4739C19.5994 21.6926 18.6879 21.8567 17.74 21.9661C16.8103 22.0754 15.9809 22.1301 15.2517 22.1301ZM14.2673 28.72C12.3533 28.72 10.5486 28.3554 8.85327 27.6262C7.13973 26.8971 5.6495 25.899 4.38257 24.6321C3.11564 23.3652 2.11759 21.884 1.38843 20.1887C0.659261 18.4934 0.294678 16.6796 0.294678 14.7473C0.294678 12.815 0.659261 11.0012 1.38843 9.30591C2.11759 7.6106 3.11564 6.12948 4.38257 4.86255C5.6495 3.59562 7.13973 2.59757 8.85327 1.86841C10.5486 1.12101 12.3533 0.747314 14.2673 0.747314C15.1788 0.747314 16.072 0.838461 16.947 1.02075C17.8038 1.18481 18.6423 1.43091 19.4626 1.75903C20.283 2.08716 21.0668 2.4882 21.8142 2.96216C22.5616 3.43612 23.2634 3.98299 23.9197 4.60278C24.0291 4.71216 24.0883 4.84888 24.0974 5.01294C24.1065 5.177 24.0564 5.32284 23.947 5.45044C23.8194 5.55981 23.6781 5.61906 23.5232 5.62817C23.3682 5.63729 23.227 5.58716 23.0994 5.47778C22.4978 4.89445 21.8598 4.38403 21.1853 3.94653C20.4926 3.50903 19.7725 3.14445 19.0251 2.85278C18.2778 2.56112 17.503 2.33325 16.7009 2.16919C15.9171 2.02336 15.1059 1.95044 14.2673 1.95044C12.5173 1.95044 10.8585 2.28768 9.29077 2.96216C7.74129 3.61841 6.38778 4.52987 5.23022 5.69653C4.07267 6.8632 3.15666 8.22127 2.48218 9.77075C1.8077 11.3202 1.47046 12.9791 1.47046 14.7473C1.47046 16.5155 1.8077 18.1744 2.48218 19.7239C3.15666 21.2734 4.07267 22.6269 5.23022 23.7844C6.38778 24.942 7.74129 25.858 9.29077 26.5325C10.8585 27.2069 12.5173 27.5442 14.2673 27.5442C16.0356 27.5442 17.6944 27.2069 19.2439 26.5325C20.8116 25.858 22.1742 24.942 23.3318 23.7844C24.4893 22.6269 25.4054 21.2734 26.0798 19.7239C26.7543 18.1744 27.0916 16.5155 27.0916 14.7473C27.0916 14.0911 27.0414 13.4394 26.9412 12.7922C26.8409 12.1451 26.6905 11.5116 26.49 10.8918C26.4353 10.746 26.449 10.6002 26.531 10.4543C26.613 10.3085 26.727 10.2083 26.8728 10.1536C27.0369 10.1171 27.1918 10.1353 27.3376 10.2083C27.4835 10.2812 27.5746 10.3905 27.6111 10.5364C27.8298 11.2291 27.9939 11.9264 28.1033 12.6282C28.2126 13.33 28.2673 14.0364 28.2673 14.7473C28.2673 16.6796 27.9028 18.4934 27.1736 20.1887C26.4262 21.884 25.419 23.3652 24.1521 24.6321C22.8852 25.899 21.4041 26.8971 19.7087 27.6262C18.0134 28.3554 16.1996 28.72 14.2673 28.72ZM25.7244 8.37622C25.6332 8.37622 25.5421 8.35343 25.4509 8.30786C25.3598 8.26229 25.2869 8.19393 25.2322 8.10278C25.1228 7.92049 25.0043 7.7382 24.8767 7.55591C24.7491 7.37362 24.6215 7.19132 24.4939 7.00903C24.3845 6.88143 24.3435 6.74015 24.3708 6.58521C24.3982 6.43026 24.4757 6.2981 24.6033 6.18872C24.7309 6.09757 24.8767 6.06112 25.0408 6.07935C25.2048 6.09757 25.3324 6.17049 25.4236 6.2981C25.5694 6.49862 25.7107 6.69914 25.8474 6.89966C25.9841 7.10018 26.1163 7.3007 26.2439 7.50122C26.3168 7.62882 26.335 7.77466 26.2986 7.93872C26.2621 8.10278 26.1801 8.22127 26.0525 8.29419C25.9978 8.33065 25.9431 8.35343 25.8884 8.36255C25.8337 8.37166 25.7791 8.37622 25.7244 8.37622ZM19.9275 15.7864C19.2348 15.7864 18.6423 15.5403 18.1501 15.0481C17.658 14.5559 17.4119 13.9635 17.4119 13.2708C17.4119 12.578 17.658 11.9856 18.1501 11.4934C18.6423 11.0012 19.2348 10.7551 19.9275 10.7551C20.6202 10.7551 21.2126 11.0012 21.7048 11.4934C22.197 11.9856 22.4431 12.578 22.4431 13.2708C22.4431 13.9635 22.197 14.5559 21.7048 15.0481C21.2126 15.5403 20.6202 15.7864 19.9275 15.7864ZM19.9275 11.9309C19.5629 11.9309 19.2485 12.0631 18.9841 12.3274C18.7198 12.5917 18.5876 12.9062 18.5876 13.2708C18.5876 13.6353 18.7198 13.9498 18.9841 14.2141C19.2485 14.4784 19.5629 14.6106 19.9275 14.6106C20.2921 14.6106 20.6065 14.4784 20.8708 14.2141C21.1352 13.9498 21.2673 13.6353 21.2673 13.2708C21.2673 12.9062 21.1352 12.5917 20.8708 12.3274C20.6065 12.0631 20.2921 11.9309 19.9275 11.9309ZM8.88062 15.7864C8.18791 15.7864 7.59546 15.5403 7.10327 15.0481C6.61108 14.5559 6.36499 13.9635 6.36499 13.2708C6.36499 12.578 6.61108 11.9856 7.10327 11.4934C7.59546 11.0012 8.18791 10.7551 8.88062 10.7551C9.57332 10.7551 10.1658 11.0012 10.658 11.4934C11.1501 11.9856 11.3962 12.578 11.3962 13.2708C11.3962 13.9635 11.1501 14.5559 10.658 15.0481C10.1658 15.5403 9.57332 15.7864 8.88062 15.7864ZM8.88062 11.9309C8.51603 11.9309 8.20158 12.0631 7.93726 12.3274C7.67293 12.5917 7.54077 12.9062 7.54077 13.2708C7.54077 13.6353 7.67293 13.9498 7.93726 14.2141C8.20158 14.4784 8.51603 14.6106 8.88062 14.6106C9.2452 14.6106 9.55965 14.4784 9.82397 14.2141C10.0883 13.9498 10.2205 13.6353 10.2205 13.2708C10.2205 12.9062 10.0883 12.5917 9.82397 12.3274C9.55965 12.0631 9.2452 11.9309 8.88062 11.9309Z" fill="#FF5E00"/>
</svg>
