<svg width="29" height="29" viewBox="0 0 29 29" fill="none" xmlns="http://www.w3.org/2000/svg">
<path d="M14.717 0.719971C14.6988 0.719971 14.6851 0.719971 14.676 0.719971C14.6669 0.719971 14.6532 0.719971 14.635 0.719971C12.7027 0.719971 10.8889 1.08455 9.1936 1.81372C7.48006 2.54289 5.98983 3.54093 4.7229 4.80786C3.45597 6.07479 2.45793 7.56502 1.72876 9.27856C0.999593 10.9739 0.63501 12.7877 0.63501 14.72C0.63501 16.6523 0.999593 18.4661 1.72876 20.1614C2.45793 21.8749 3.45597 23.3652 4.7229 24.6321C5.98983 25.899 7.48006 26.8971 9.1936 27.6262C10.8889 28.3554 12.7027 28.72 14.635 28.72C16.5673 28.72 18.3811 28.3554 20.0764 27.6262C21.7717 26.8971 23.2483 25.9036 24.5061 24.6458C25.7639 23.3879 26.7665 21.9114 27.5139 20.2161C28.2431 18.5208 28.6168 16.7161 28.635 14.802C28.635 14.7838 28.635 14.7701 28.635 14.761C28.635 14.7519 28.635 14.7473 28.635 14.7473C28.635 12.815 28.2704 11.0012 27.5413 9.30591C26.8121 7.6106 25.8186 6.12948 24.5608 4.86255C23.303 3.59562 21.8264 2.58846 20.1311 1.84106C18.4358 1.1119 16.6311 0.738199 14.717 0.719971ZM14.553 27.6262C12.7847 27.608 11.1259 27.2616 9.57642 26.5872C8.00871 25.9127 6.64608 24.9921 5.48853 23.8254C4.33097 22.6588 3.41496 21.2916 2.74048 19.7239C2.066 18.1562 1.72876 16.4882 1.72876 14.72C1.72876 12.9335 2.066 11.2564 2.74048 9.68872C3.41496 8.12101 4.33553 6.75382 5.5022 5.58716C6.66886 4.42049 8.03605 3.49992 9.60376 2.82544C11.1715 2.15096 12.8486 1.81372 14.635 1.81372C16.4215 1.81372 18.0986 2.15096 19.6663 2.82544C21.234 3.49992 22.6012 4.42049 23.7678 5.58716C24.9345 6.75382 25.8551 8.12101 26.5295 9.68872C27.204 11.2564 27.5413 12.9335 27.5413 14.72C27.5413 14.7382 27.5413 14.7519 27.5413 14.761C27.5413 14.7701 27.5413 14.7838 27.5413 14.802C27.523 16.5702 27.1767 18.2291 26.5022 19.7786C25.8277 21.3463 24.9026 22.7089 23.7268 23.8665C22.551 25.024 21.1884 25.94 19.6389 26.6145C18.0712 27.289 16.3941 27.6262 14.6077 27.6262C14.6077 27.6262 14.6031 27.6262 14.594 27.6262C14.5849 27.6262 14.5712 27.6262 14.553 27.6262ZM14.6897 3.78247C14.6715 3.78247 14.6578 3.78247 14.6487 3.78247C14.6396 3.78247 14.6259 3.78247 14.6077 3.78247C13.7509 3.78247 12.9215 3.87362 12.1194 4.05591C11.3173 4.25643 10.5562 4.53442 9.83618 4.88989C9.11613 5.24536 8.44621 5.66919 7.82642 6.16138C7.20662 6.65356 6.64152 7.20955 6.1311 7.82935V7.85669C6.09465 7.91138 6.06274 7.96606 6.0354 8.02075C6.00806 8.07544 5.99438 8.13924 5.99438 8.21216C5.99438 8.35799 6.04907 8.4856 6.15845 8.59497C6.26782 8.70435 6.39543 8.75903 6.54126 8.75903C6.63241 8.75903 6.71444 8.7408 6.78735 8.70435C6.86027 8.66789 6.92407 8.6132 6.97876 8.54028C7.43449 7.97518 7.94491 7.47388 8.51001 7.03638C9.07511 6.58065 9.68123 6.19328 10.3284 5.87427C10.9755 5.55526 11.6637 5.30461 12.3928 5.12231C13.122 4.95825 13.8694 4.87622 14.635 4.87622C16.0022 4.87622 17.2782 5.13143 18.4631 5.64185C19.6663 6.17049 20.7099 6.87687 21.594 7.76099C22.4781 8.6451 23.1845 9.68872 23.7131 10.8918C24.2236 12.0767 24.4788 13.3528 24.4788 14.72C24.4788 16.0872 24.2236 17.3632 23.7131 18.5481C23.1845 19.7512 22.4781 20.7948 21.594 21.679C20.7099 22.5631 19.6663 23.2694 18.4631 23.7981C17.2782 24.3085 16.0022 24.5637 14.635 24.5637C13.2678 24.5637 11.9918 24.3085 10.8069 23.7981C9.60376 23.2694 8.56014 22.5631 7.67603 21.679C6.79191 20.7948 6.08553 19.7512 5.55688 18.5481C5.04647 17.3632 4.79126 16.0872 4.79126 14.72C4.79126 14.7017 4.79126 14.6881 4.79126 14.679C4.79126 14.6698 4.79126 14.6653 4.79126 14.6653C4.79126 14.3189 4.80949 13.9771 4.84595 13.6399C4.88241 13.3027 4.93709 12.9791 5.01001 12.6692L4.98267 12.7239C5.0009 12.7056 5.01001 12.6874 5.01001 12.6692C5.01001 12.651 5.01001 12.6327 5.01001 12.6145C5.01001 12.4687 4.95532 12.3411 4.84595 12.2317C4.73657 12.1223 4.60897 12.0676 4.46313 12.0676C4.33553 12.0676 4.2216 12.1086 4.12134 12.1907C4.02108 12.2727 3.95272 12.3775 3.91626 12.5051C3.84334 12.8333 3.78866 13.1887 3.7522 13.5715C3.71574 13.9543 3.69751 14.3372 3.69751 14.72C3.69751 16.233 3.98006 17.6549 4.54517 18.9856C5.1285 20.3163 5.91235 21.4739 6.89673 22.4583C7.8811 23.4426 9.03866 24.2265 10.3694 24.8098C11.7001 25.3749 13.122 25.6575 14.635 25.6575C16.148 25.6575 17.5699 25.3749 18.9006 24.8098C20.2314 24.2265 21.3889 23.4426 22.3733 22.4583C23.3577 21.4739 24.1415 20.3163 24.7249 18.9856C25.29 17.6549 25.5725 16.233 25.5725 14.72C25.5725 13.207 25.29 11.7942 24.7249 10.4817C24.1597 9.15096 23.385 7.99341 22.4006 7.00903C21.4163 6.02466 20.2587 5.2408 18.928 4.65747C17.6155 4.07414 16.2027 3.78247 14.6897 3.78247ZM9.0022 7.802C8.83813 7.802 8.70597 7.85213 8.60571 7.95239C8.50545 8.05265 8.45532 8.1757 8.45532 8.32153L8.42798 12.1497C8.42798 12.1679 8.42798 12.177 8.42798 12.177C8.42798 12.6145 8.52368 13.0247 8.71509 13.4075C8.90649 13.7903 9.16626 14.1002 9.49438 14.3372V14.3645L9.46704 20.4895C9.46704 20.5077 9.46704 20.5168 9.46704 20.5168C9.46704 20.5168 9.46704 20.526 9.46704 20.5442C9.46704 20.9999 9.62655 21.3873 9.94556 21.7063C10.2646 22.0253 10.6519 22.1848 11.1077 22.1848C11.5634 22.1848 11.9508 22.0253 12.2698 21.7063C12.5888 21.3873 12.7483 20.9999 12.7483 20.5442C12.7483 20.526 12.7483 20.5168 12.7483 20.5168L12.7756 14.3645C13.122 14.1275 13.3954 13.8176 13.5959 13.4348C13.7965 13.052 13.8967 12.6418 13.8967 12.2043L13.9241 8.37622C13.9058 8.21216 13.8466 8.08 13.7463 7.97974C13.6461 7.87948 13.523 7.82935 13.3772 7.82935C13.2314 7.82935 13.1038 7.87948 12.9944 7.97974C12.885 8.08 12.8303 8.20304 12.8303 8.34888L12.803 11.0833H11.7092L11.7366 8.34888C11.7183 8.20304 11.6591 8.08 11.5588 7.97974C11.4586 7.87948 11.3355 7.82935 11.1897 7.82935C11.0439 7.82935 10.9163 7.87948 10.8069 7.97974C10.6975 8.08 10.6428 8.20304 10.6428 8.34888L10.6155 11.0833H9.52173L9.54907 8.34888C9.54907 8.18481 9.49438 8.05265 9.38501 7.95239C9.27563 7.85213 9.14803 7.802 9.0022 7.802ZM11.6545 20.5168C11.6545 20.6627 11.5999 20.7857 11.4905 20.886C11.3811 20.9862 11.2535 21.0364 11.1077 21.0364C10.9618 21.0364 10.8342 20.9862 10.7249 20.886C10.6155 20.7857 10.5608 20.6627 10.5608 20.5168L10.5881 14.8567C10.6793 14.8749 10.7704 14.8886 10.8616 14.8977C10.9527 14.9068 11.0439 14.9114 11.135 14.9114C11.135 14.9114 11.1396 14.9114 11.1487 14.9114C11.1578 14.9114 11.1624 14.9114 11.1624 14.9114C11.2535 14.9114 11.3446 14.9068 11.4358 14.8977C11.5269 14.8886 11.6181 14.8749 11.7092 14.8567H11.6819L11.6545 20.5168ZM11.1624 13.8176C10.7066 13.8176 10.3193 13.6581 10.0002 13.3391C9.68123 13.0201 9.52173 12.6327 9.52173 12.177H12.803C12.803 12.6327 12.6435 13.0201 12.3245 13.3391C12.0055 13.6581 11.6181 13.8176 11.1624 13.8176ZM18.0256 22.1848C18.0256 22.1848 18.0302 22.1848 18.0393 22.1848C18.0484 22.1848 18.053 22.1848 18.053 22.1848C18.4905 22.1848 18.8733 22.0253 19.2014 21.7063C19.5295 21.3873 19.6936 20.9999 19.6936 20.5442L19.7209 14.009C20.1402 13.7538 20.4775 13.4166 20.7327 12.9973C20.9879 12.578 21.1155 12.1223 21.1155 11.6301C21.1155 11.6119 21.1109 11.5937 21.1018 11.5754C21.0927 11.5572 21.0881 11.5481 21.0881 11.5481C21.0881 11.0377 21.0198 10.5546 20.8831 10.0989C20.7463 9.64315 20.5504 9.21476 20.2952 8.81372L20.3225 8.84106C20.0126 8.34888 19.6708 7.97062 19.2971 7.7063C18.9234 7.44198 18.5269 7.3007 18.1077 7.28247C17.7066 7.28247 17.3147 7.41463 16.9319 7.67896C16.5491 7.94328 16.2027 8.32153 15.8928 8.81372C15.6558 9.19653 15.469 9.6158 15.3323 10.0715C15.1956 10.5273 15.1181 11.0012 15.0999 11.4934V11.5208C15.0999 11.5208 15.0953 11.5299 15.0862 11.5481C15.0771 11.5663 15.0725 11.5846 15.0725 11.6028C15.0725 12.1132 15.2001 12.578 15.4553 12.9973C15.7105 13.4166 16.0387 13.7447 16.4397 13.9817L16.4124 20.5442C16.4124 20.9999 16.5719 21.3873 16.8909 21.7063C17.2099 22.0253 17.5881 22.1848 18.0256 22.1848ZM18.5999 20.5442C18.5816 20.69 18.5224 20.8131 18.4221 20.9133C18.3219 21.0136 18.1988 21.0637 18.053 21.0637C17.9071 21.0637 17.7795 21.0136 17.6702 20.9133C17.5608 20.8131 17.5061 20.69 17.5061 20.5442L17.5334 14.3645C17.6246 14.3827 17.7157 14.3918 17.8069 14.3918C17.898 14.3918 17.9983 14.3918 18.1077 14.3918C18.1988 14.3918 18.29 14.3918 18.3811 14.3918C18.4722 14.3918 18.5634 14.3827 18.6545 14.3645H18.6272L18.5999 20.5442ZM18.1077 8.37622C18.3264 8.37622 18.5452 8.46737 18.7639 8.64966C18.9827 8.83195 19.1832 9.08716 19.3655 9.41528C19.566 9.70695 19.7209 10.0351 19.8303 10.3997C19.9397 10.7642 19.9944 11.1379 19.9944 11.5208V11.5481C19.9944 12.2043 19.7939 12.6646 19.3928 12.929C18.9918 13.1933 18.5543 13.3163 18.0803 13.2981C17.6246 13.2981 17.1917 13.1659 16.7815 12.9016C16.3713 12.6373 16.1754 12.177 16.1936 11.5208C16.1936 10.8645 16.3941 10.1764 16.7952 9.4563C17.1962 8.73625 17.6337 8.37622 18.1077 8.37622ZM5.22876 10.8372C5.39282 10.8372 5.52498 10.7825 5.62524 10.6731C5.7255 10.5637 5.77563 10.4361 5.77563 10.2903C5.77563 10.1262 5.7255 9.99406 5.62524 9.8938C5.52498 9.79354 5.39282 9.74341 5.22876 9.74341C5.08293 9.74341 4.95532 9.79354 4.84595 9.8938C4.73657 9.99406 4.68188 10.1262 4.68188 10.2903C4.68188 10.4361 4.73657 10.5637 4.84595 10.6731C4.95532 10.7825 5.08293 10.8372 5.22876 10.8372Z" fill="#FF5E00"/>
</svg>
