<svg width="28" height="28" viewBox="0 0 28 28" fill="none" xmlns="http://www.w3.org/2000/svg">
<path d="M19.7336 16.0715C19.6972 16.0715 19.6607 16.067 19.6243 16.0579C19.5878 16.0487 19.5514 16.0442 19.5149 16.0442C19.1139 15.8984 18.6125 15.7389 18.011 15.5657C17.4094 15.3925 17.0995 15.3059 17.0813 15.3059C16.899 15.2695 16.7623 15.1646 16.6711 14.9915C16.58 14.8183 16.5618 14.6405 16.6165 14.4583C16.6711 14.276 16.7805 14.1392 16.9446 14.0481C17.1086 13.957 17.2818 13.9387 17.4641 13.9934C17.5006 13.9934 17.8241 14.08 18.4348 14.2532C19.0455 14.4264 19.5514 14.5859 19.9524 14.7317C20.1347 14.8046 20.2668 14.9231 20.3489 15.0872C20.4309 15.2512 20.4446 15.4244 20.3899 15.6067C20.3352 15.7525 20.2486 15.8665 20.1301 15.9485C20.0116 16.0305 19.8795 16.0715 19.7336 16.0715ZM20.0618 20.5559C19.8977 20.5559 19.7519 20.5058 19.6243 20.4055C19.4967 20.3053 19.4146 20.1822 19.3782 20.0364C19.3417 19.8359 19.3736 19.6581 19.4739 19.5032C19.5741 19.3482 19.7154 19.2525 19.8977 19.2161C19.9342 19.1978 20.0344 19.1477 20.1985 19.0657C20.3625 18.9836 20.4446 18.8333 20.4446 18.6145C20.4446 18.414 20.5129 18.2499 20.6497 18.1223C20.7864 17.9947 20.9459 17.9309 21.1282 17.9309C21.3105 17.9309 21.47 17.9947 21.6067 18.1223C21.7434 18.2499 21.8118 18.414 21.8118 18.6145C21.8118 19.2343 21.6112 19.6946 21.2102 19.9954C20.8092 20.2961 20.4719 20.483 20.1985 20.5559C20.1803 20.5559 20.1575 20.5559 20.1301 20.5559C20.1028 20.5559 20.08 20.5559 20.0618 20.5559ZM13.9641 20.5559H8.49536C8.16724 20.5559 7.90291 20.5012 7.70239 20.3918C7.50187 20.2825 7.34692 20.1731 7.23755 20.0637C7.0188 19.8267 6.89119 19.5852 6.85474 19.3391C6.81828 19.093 6.80916 18.9244 6.82739 18.8333V15.552C6.82739 15.3879 6.87297 15.2467 6.96411 15.1282C7.05526 15.0097 7.17375 14.9322 7.31958 14.8958L12.761 13.5012C12.8521 13.4648 12.9478 13.4556 13.0481 13.4739C13.1484 13.4921 13.2349 13.5377 13.3079 13.6106C13.399 13.6653 13.4719 13.7336 13.5266 13.8157C13.5813 13.8977 13.6086 13.9934 13.6086 14.1028C13.6451 14.5038 13.7454 14.7317 13.9094 14.7864C14.0735 14.8411 14.2011 14.8684 14.2922 14.8684C14.4198 14.8502 14.5338 14.8228 14.634 14.7864C14.7343 14.7499 14.8118 14.7043 14.8665 14.6497C14.9394 14.5585 14.9758 14.4628 14.9758 14.3625C14.9758 14.2623 14.9758 14.2122 14.9758 14.2122C14.9758 14.1939 14.9758 14.1757 14.9758 14.1575C14.9758 14.1392 14.9758 14.1301 14.9758 14.1301V12.845C14.9758 12.7356 14.9986 12.6353 15.0442 12.5442C15.0898 12.453 15.1581 12.371 15.2493 12.2981C15.7232 11.9517 16.0286 11.4687 16.1653 10.8489C16.302 10.2291 16.3157 9.64575 16.2063 9.09888C16.1152 8.57023 15.942 8.12362 15.6868 7.75903C15.4316 7.39445 15.1399 7.16659 14.8118 7.07544C14.2284 6.91138 13.7317 6.97062 13.3215 7.25317C12.9114 7.53573 12.606 8.04159 12.4055 8.77075C12.2961 9.44523 12.2779 10.024 12.3508 10.5071C12.4237 10.9902 12.5787 11.3684 12.8157 11.6418C13.0162 11.8788 13.2258 12.0201 13.4446 12.0657C13.6633 12.1112 13.7727 12.134 13.7727 12.134C13.9732 12.134 14.1418 12.1978 14.2786 12.3254C14.4153 12.453 14.4836 12.608 14.4836 12.7903C14.4836 12.9908 14.4198 13.1549 14.2922 13.2825C14.1646 13.4101 14.0006 13.483 13.8 13.5012C13.7454 13.5012 13.5038 13.4602 13.0754 13.3782C12.6471 13.2961 12.2232 13.0273 11.804 12.5715C11.4211 12.134 11.1659 11.578 11.0383 10.9036C10.9107 10.2291 10.9107 9.43612 11.0383 8.52466C11.0383 8.50643 11.0429 8.49276 11.052 8.48364C11.0611 8.47453 11.0657 8.46086 11.0657 8.44263C11.3756 7.33065 11.8951 6.53768 12.6243 6.06372C13.3534 5.58976 14.2102 5.4895 15.1946 5.76294C15.7779 5.927 16.2838 6.28703 16.7122 6.84302C17.1405 7.39901 17.4277 8.06893 17.5735 8.85278C17.7193 9.70955 17.6829 10.5253 17.4641 11.3C17.2454 12.0748 16.8717 12.6991 16.343 13.1731V14.1028C16.3612 14.1939 16.3521 14.3808 16.3157 14.6633C16.2792 14.9459 16.1516 15.233 15.9329 15.5247C15.8053 15.6705 15.6184 15.8163 15.3723 15.9622C15.1262 16.108 14.7935 16.1991 14.3743 16.2356C13.9185 16.2721 13.5221 16.1809 13.1848 15.9622C12.8476 15.7434 12.5969 15.4244 12.4329 15.0051L8.19458 16.0989V18.8606C8.19458 18.8606 8.19458 18.8652 8.19458 18.8743C8.19458 18.8834 8.19458 18.8971 8.19458 18.9153C8.19458 18.9335 8.19914 18.97 8.20825 19.0247C8.21737 19.0793 8.23104 19.1158 8.24927 19.134C8.2675 19.1523 8.29484 19.1659 8.3313 19.175C8.36776 19.1842 8.42244 19.1887 8.49536 19.1887H13.9641C14.1646 19.1887 14.3287 19.2571 14.4563 19.3938C14.5839 19.5305 14.6477 19.69 14.6477 19.8723C14.6477 20.0546 14.5839 20.2141 14.4563 20.3508C14.3287 20.4875 14.1646 20.5559 13.9641 20.5559ZM16.9719 21.8958C16.9537 21.8958 16.9446 21.8958 16.9446 21.8958C16.9446 21.8958 16.9355 21.8958 16.9172 21.8958C16.8079 21.8958 16.7076 21.8684 16.6165 21.8137C16.5253 21.759 16.4433 21.677 16.3704 21.5676L14.5657 18.6692C14.4563 18.5051 14.4244 18.332 14.47 18.1497C14.5155 17.9674 14.6204 17.8215 14.7844 17.7122C14.9485 17.621 15.1217 17.5937 15.304 17.6301C15.4862 17.6666 15.6321 17.7668 15.7415 17.9309L17.0266 20.0364L21.2649 14.7864C21.3925 14.6223 21.5474 14.5312 21.7297 14.5129C21.912 14.4947 22.0761 14.5494 22.2219 14.677C22.386 14.7864 22.4771 14.9368 22.4954 15.1282C22.5136 15.3196 22.4589 15.4882 22.3313 15.634L17.4915 21.6497C17.4368 21.7226 17.3593 21.7818 17.259 21.8274C17.1588 21.873 17.0631 21.8958 16.9719 21.8958ZM14.2375 25.095C12.6698 25.095 11.2024 24.8033 9.83521 24.22C8.44979 23.6184 7.24211 22.8027 6.21216 21.7727C5.18221 20.7428 4.37557 19.5442 3.79224 18.177C3.19067 16.7916 2.88989 15.3241 2.88989 13.7747C2.88989 13.009 2.96281 12.2571 3.10864 11.5188C3.25448 10.7805 3.48234 10.0559 3.79224 9.34497C3.86515 9.18091 3.9882 9.06242 4.16138 8.9895C4.33455 8.91659 4.51229 8.91659 4.69458 8.9895C4.85864 9.06242 4.97713 9.18546 5.05005 9.35864C5.12297 9.53182 5.12297 9.70955 5.05005 9.89185C4.79484 10.4934 4.59888 11.1223 4.46216 11.7786C4.32544 12.4348 4.25708 13.1002 4.25708 13.7747C4.25708 15.1418 4.5214 16.427 5.05005 17.6301C5.57869 18.8515 6.29419 19.9133 7.19653 20.8157C8.09888 21.718 9.15161 22.4244 10.3547 22.9348C11.5579 23.4635 12.8521 23.7278 14.2375 23.7278C15.6047 23.7278 16.899 23.4635 18.1204 22.9348C19.3235 22.4244 20.3762 21.718 21.2786 20.8157C22.1809 19.9133 22.8964 18.8515 23.425 17.6301C23.9355 16.427 24.1907 15.1418 24.1907 13.7747C24.1907 12.3892 23.9355 11.095 23.425 9.89185C22.8964 8.67049 22.1809 7.60864 21.2786 6.7063C20.3762 5.80396 19.3235 5.09757 18.1204 4.58716C16.899 4.05851 15.6047 3.79419 14.2375 3.79419C13.2349 3.79419 12.2597 3.94002 11.3118 4.23169C10.3639 4.52336 9.47974 4.94263 8.65942 5.4895C8.49536 5.59888 8.32218 5.63534 8.13989 5.59888C7.9576 5.56242 7.81177 5.47127 7.70239 5.32544C7.59302 5.16138 7.55656 4.98364 7.59302 4.79224C7.62948 4.60083 7.72974 4.45955 7.8938 4.36841C8.82349 3.73039 9.82609 3.24731 10.9016 2.91919C11.9771 2.59106 13.0891 2.427 14.2375 2.427C15.8053 2.427 17.2727 2.71867 18.6399 3.302C20.0253 3.90356 21.2284 4.71932 22.2493 5.74927C23.2701 6.77921 24.0813 7.97778 24.6829 9.34497C25.2844 10.7304 25.5852 12.207 25.5852 13.7747C25.5852 15.3241 25.2844 16.7916 24.6829 18.177C24.0813 19.5442 23.2701 20.7428 22.2493 21.7727C21.2284 22.8027 20.0253 23.6184 18.6399 24.22C17.2727 24.8033 15.8053 25.095 14.2375 25.095ZM5.46021 8.41528C5.38729 8.41528 5.31893 8.40617 5.25513 8.38794C5.19132 8.36971 5.12297 8.34237 5.05005 8.30591C4.90422 8.19653 4.81307 8.04614 4.77661 7.85474C4.74015 7.66333 4.77661 7.49471 4.88599 7.34888C5.03182 7.13013 5.17765 6.92505 5.32349 6.73364C5.46932 6.54224 5.62427 6.35539 5.78833 6.1731C5.91593 6.04549 6.07544 5.97713 6.26685 5.96802C6.45825 5.9589 6.62687 6.00903 6.77271 6.11841C6.91854 6.24601 6.99601 6.40552 7.00513 6.59692C7.01424 6.78833 6.955 6.95695 6.82739 7.10278C6.68156 7.26685 6.54028 7.43091 6.40356 7.59497C6.26685 7.75903 6.13468 7.93221 6.00708 8.1145C5.95239 8.20565 5.87492 8.27856 5.77466 8.33325C5.6744 8.38794 5.56958 8.41528 5.46021 8.41528ZM14.2375 27.3918C12.3599 27.3918 10.5917 27.0364 8.93286 26.3254C7.27401 25.6145 5.82935 24.6392 4.59888 23.3997C3.36841 22.1601 2.38859 20.72 1.65942 19.0793C0.948486 17.4205 0.593018 15.6523 0.593018 13.7747C0.593018 11.8788 0.948486 10.1106 1.65942 8.46997C2.38859 6.81112 3.36841 5.3619 4.59888 4.12231C5.82935 2.88273 7.27401 1.90747 8.93286 1.19653C10.5917 0.485596 12.3599 0.130127 14.2375 0.130127C16.1152 0.130127 17.8834 0.485596 19.5422 1.19653C21.2011 1.90747 22.6458 2.88273 23.8762 4.12231C25.1067 5.3619 26.0774 6.81112 26.7883 8.46997C27.5175 10.1106 27.8821 11.8788 27.8821 13.7747C27.8821 15.6523 27.5175 17.4205 26.7883 19.0793C26.0774 20.72 25.1067 22.1601 23.8762 23.3997C22.6458 24.6392 21.2011 25.6145 19.5422 26.3254C17.8834 27.0364 16.1152 27.3918 14.2375 27.3918ZM14.2375 1.49731C12.5422 1.49731 10.9472 1.81632 9.45239 2.45435C7.97583 3.1106 6.68156 3.99471 5.56958 5.10669C4.4576 6.21867 3.5826 7.51294 2.94458 8.9895C2.28833 10.4843 1.96021 12.0793 1.96021 13.7747C1.96021 15.4517 2.28833 17.0377 2.94458 18.5325C3.5826 20.0273 4.4576 21.3306 5.56958 22.4426C6.68156 23.5546 7.97583 24.4296 9.45239 25.0676C10.9472 25.7056 12.5422 26.0247 14.2375 26.0247C15.9329 26.0247 17.5188 25.7056 18.9954 25.0676C20.4902 24.4296 21.7935 23.5546 22.9055 22.4426C24.0175 21.3306 24.8925 20.0273 25.5305 18.5325C26.1685 17.0377 26.4875 15.4517 26.4875 13.7747C26.4875 12.0793 26.1685 10.4843 25.5305 8.9895C24.8925 7.51294 24.0175 6.21867 22.9055 5.10669C21.7935 3.99471 20.4902 3.1106 18.9954 2.45435C17.5188 1.81632 15.9329 1.49731 14.2375 1.49731Z" fill="#FF5E00"/>
</svg>
