<svg width="17" height="17" viewBox="0 0 17 17" fill="none" xmlns="http://www.w3.org/2000/svg">
<path d="M8.16992 0.669983C8.722 0.669983 9.25846 0.722066 9.7793 0.826233C10.3001 0.940816 10.8001 1.09967 11.2793 1.3028C11.7585 1.50592 12.2116 1.74811 12.6387 2.02936C13.0658 2.32102 13.4616 2.64915 13.8262 3.01373C14.1908 3.37832 14.5137 3.77415 14.7949 4.20123C15.0866 4.62832 15.334 5.08144 15.5371 5.56061C15.7402 6.03977 15.8939 6.53977 15.998 7.06061C16.1126 7.58144 16.1699 8.1179 16.1699 8.66998C16.1699 9.22207 16.1126 9.75852 15.998 10.2794C15.8939 10.8002 15.7402 11.3002 15.5371 11.7794C15.334 12.2585 15.0866 12.7116 14.7949 13.1387C14.5137 13.5658 14.1908 13.9616 13.8262 14.3262C13.4616 14.6908 13.0658 15.0137 12.6387 15.295C12.2116 15.5866 11.7585 15.834 11.2793 16.0372C10.8001 16.2403 10.3001 16.3991 9.7793 16.5137C9.25846 16.6179 8.722 16.67 8.16992 16.67C7.61784 16.67 7.08138 16.6179 6.56055 16.5137C6.03971 16.3991 5.53971 16.2403 5.06055 16.0372C4.58138 15.834 4.12826 15.5866 3.70117 15.295C3.27409 15.0137 2.87826 14.6908 2.51367 14.3262C2.14909 13.9616 1.82617 13.5658 1.54492 13.1387C1.25326 12.7116 1.00586 12.2585 0.802734 11.7794C0.599609 11.3002 0.445964 10.8002 0.341797 10.2794C0.227214 9.75852 0.169922 9.22207 0.169922 8.66998C0.169922 8.1179 0.227214 7.58144 0.341797 7.06061C0.445964 6.53977 0.599609 6.03977 0.802734 5.56061C1.00586 5.08144 1.25326 4.62832 1.54492 4.20123C1.82617 3.77415 2.14909 3.37832 2.51367 3.01373C2.87826 2.64915 3.27409 2.32102 3.70117 2.02936C4.12826 1.74811 4.58138 1.50592 5.06055 1.3028C5.53971 1.09967 6.03971 0.940816 6.56055 0.826233C7.08138 0.722066 7.61784 0.669983 8.16992 0.669983ZM12.248 8.23248C12.3626 8.23248 12.4616 8.27415 12.5449 8.35748C12.6283 8.44082 12.6699 8.54498 12.6699 8.66998C12.6699 8.78457 12.6283 8.88613 12.5449 8.97467C12.4616 9.06321 12.3626 9.10748 12.248 9.10748H8.16992C8.08659 9.10748 8.01107 9.08665 7.94336 9.04498C7.87565 9.00332 7.82617 8.95123 7.79492 8.88873L7.7793 8.87311V8.85748L7.76367 8.84186V8.82623V8.81061H7.74805V8.79498V8.77936V8.76373V8.74811L7.73242 8.73248V3.46686C7.73242 3.34186 7.77409 3.23769 7.85742 3.15436C7.94076 3.07102 8.04492 3.02936 8.16992 3.02936C8.2845 3.02936 8.38607 3.07102 8.47461 3.15436C8.56315 3.23769 8.60742 3.34186 8.60742 3.46686V8.23248H12.248ZM13.2012 3.62311C12.8783 3.30019 12.5293 3.01373 12.1543 2.76373C11.7689 2.50332 11.3626 2.28196 10.9355 2.09967C10.5085 1.91738 10.0658 1.77936 9.60742 1.68561C9.13867 1.59186 8.6595 1.54498 8.16992 1.54498C7.68034 1.54498 7.20117 1.59186 6.73242 1.68561C6.26367 1.77936 5.81576 1.91738 5.38867 2.09967C4.96159 2.28196 4.56055 2.50332 4.18555 2.76373C3.80013 3.01373 3.44596 3.30019 3.12305 3.62311C2.80013 3.94602 2.51367 4.30019 2.26367 4.68561C2.00326 5.06061 1.7819 5.46165 1.59961 5.88873C1.41732 6.31582 1.2793 6.76373 1.18555 7.23248C1.0918 7.70123 1.04492 8.1804 1.04492 8.66998C1.04492 9.15957 1.0918 9.63873 1.18555 10.1075C1.2793 10.5762 1.41732 11.0241 1.59961 11.4512C1.7819 11.8783 2.00326 12.2794 2.26367 12.6544C2.51367 13.0398 2.80013 13.3939 3.12305 13.7169C3.44596 14.0398 3.80013 14.3262 4.18555 14.5762C4.56055 14.8366 4.96159 15.058 5.38867 15.2403C5.81576 15.4226 6.26367 15.5606 6.73242 15.6544C7.20117 15.7481 7.68034 15.795 8.16992 15.795C8.6595 15.795 9.13867 15.7481 9.60742 15.6544C10.0658 15.5606 10.5085 15.4226 10.9355 15.2403C11.3626 15.058 11.7689 14.8366 12.1543 14.5762C12.5293 14.3262 12.8783 14.0398 13.2012 13.7169C13.5241 13.3939 13.8158 13.0398 14.0762 12.6544C14.3366 12.2794 14.5579 11.8783 14.7402 11.4512C14.9225 11.0241 15.0605 10.5762 15.1543 10.1075C15.248 9.63873 15.2949 9.15957 15.2949 8.66998C15.2949 8.1804 15.248 7.70123 15.1543 7.23248C15.0605 6.76373 14.9225 6.31582 14.7402 5.88873C14.5579 5.46165 14.3366 5.06061 14.0762 4.68561C13.8158 4.30019 13.5241 3.94602 13.2012 3.62311Z" fill="#FF5300"/>
</svg>
